<svg width="25" height="24" viewBox="0 0 25 24" fill="none" xmlns="http://www.w3.org/2000/svg">
<path d="M12.3332 7.6001C11.4125 7.6001 10.5125 7.85815 9.74695 8.34163C8.98143 8.82511 8.38478 9.51229 8.03245 10.3163C7.68012 11.1203 7.58793 12.005 7.76755 12.8585C7.94717 13.712 8.39052 14.496 9.04154 15.1114C9.69256 15.7267 10.522 16.1458 11.425 16.3155C12.328 16.4853 13.264 16.3982 14.1146 16.0652C14.9652 15.7321 15.6922 15.1682 16.2037 14.4446C16.7152 13.721 16.9882 12.8703 16.9882 12.0001C16.9868 10.8336 16.4959 9.71516 15.6233 8.89029C14.7506 8.06542 13.5673 7.60142 12.3332 7.6001ZM12.3332 14.8001C11.7473 14.8001 11.1745 14.6359 10.6874 14.3282C10.2002 14.0205 9.82056 13.5832 9.59635 13.0716C9.37214 12.56 9.31347 11.997 9.42777 11.4538C9.54208 10.9107 9.82421 10.4118 10.2385 10.0202C10.6528 9.62861 11.1806 9.36194 11.7552 9.2539C12.3299 9.14586 12.9255 9.20131 13.4668 9.41323C14.0081 9.62516 14.4707 9.98404 14.7962 10.4445C15.1217 10.905 15.2955 11.4463 15.2955 12.0001C15.2946 12.7424 14.9822 13.4542 14.4269 13.9791C13.8715 14.504 13.1186 14.7993 12.3332 14.8001Z" fill="#DDDDDD"/>
<path d="M23.9469 15.3159L22.2663 14.0083C22.5643 12.6842 22.5643 11.3158 22.2663 9.9917L23.9469 8.68405C24.1408 8.53394 24.2717 8.32351 24.3164 8.09045C24.361 7.85739 24.3164 7.61692 24.1906 7.4121L22.4655 4.58795C22.3407 4.38247 22.1427 4.22568 21.9068 4.14569C21.6709 4.0657 21.4125 4.06775 21.1781 4.15145L19.1383 4.8738C18.0756 3.96634 16.822 3.2815 15.4597 2.8642L15.1018 0.835654C15.0613 0.60187 14.934 0.389369 14.7427 0.236238C14.5515 0.0831077 14.3088 -0.000640838 14.0582 3.69267e-06H10.6081C10.3574 -0.000632636 10.1148 0.0831125 9.92354 0.236231C9.73231 0.38935 9.60502 0.601834 9.56448 0.835604L9.20678 2.8642C7.84443 3.28149 6.59083 3.96633 5.52822 4.8738L3.48819 4.15135C3.25374 4.0677 2.99544 4.06569 2.75957 4.14569C2.52369 4.22568 2.32566 4.38245 2.20096 4.5879L0.475885 7.41225C0.350072 7.61708 0.305517 7.85756 0.350201 8.09062C0.394885 8.32367 0.525887 8.53408 0.719747 8.68415L2.40017 9.9917C2.10225 11.3158 2.10225 12.6842 2.40017 14.0083L0.719588 15.3159C0.52576 15.4661 0.394793 15.6765 0.350139 15.9095C0.305485 16.1426 0.350061 16.3831 0.475885 16.5879L2.20101 19.412C2.32573 19.6175 2.52379 19.7743 2.7597 19.8543C2.9956 19.9343 3.25394 19.9322 3.4884 19.8485L5.52827 19.1262C6.59088 20.0337 7.84448 20.7185 9.20683 21.1358L9.56453 23.1643C9.60506 23.3981 9.73233 23.6106 9.92355 23.7637C10.1148 23.9169 10.3574 24.0006 10.6081 24H14.0582C14.3088 24.0006 14.5515 23.9169 14.7427 23.7638C14.934 23.6107 15.0613 23.3982 15.1018 23.1644L15.4595 21.1358C16.8219 20.7185 18.0755 20.0337 19.1381 19.1262L21.1781 19.8486C21.4125 19.9323 21.6708 19.9343 21.9067 19.8543C22.1426 19.7743 22.3406 19.6175 22.4653 19.4121L24.1903 16.5877C24.3161 16.383 24.3608 16.1426 24.3162 15.9095C24.2716 15.6765 24.1407 15.4661 23.9469 15.3159ZM21.2684 18.1719L18.7235 17.2707L18.3381 17.6374C17.2778 18.6476 15.9517 19.372 14.4964 19.7361L13.9674 19.8679L13.5206 22.4H11.146L10.6995 19.8679L10.1705 19.7361C8.71519 19.372 7.389 18.6476 6.32873 17.6374L5.94336 17.2707L3.39805 18.1719L2.21095 16.2281L4.30727 14.5969L4.16444 14.0982C3.77166 12.724 3.77166 11.276 4.16444 9.90175L4.30727 9.40315L2.21095 7.77195L3.39831 5.82805L5.94321 6.72925L6.32857 6.36255C7.38884 5.35243 8.71503 4.62797 10.1703 4.2639L10.6993 4.1321L11.1458 1.6H13.5206L13.9672 4.1321L14.4962 4.2639C15.9515 4.62797 17.2777 5.35243 18.338 6.36255L18.7233 6.72925L21.2682 5.82805L22.4556 7.7719L20.3593 9.40315L20.5021 9.90175C20.8949 11.276 20.8949 12.724 20.5021 14.0982L20.3593 14.5969L22.4556 16.228L21.2684 18.1719Z" fill="#DDDDDD"/>
</svg>
