<svg width="25" height="24" viewBox="0 0 25 24" fill="none" xmlns="http://www.w3.org/2000/svg">
<path d="M20.1699 9.2V6.4C20.1699 4.70261 19.3443 3.07475 17.8746 1.87452C16.4049 0.674284 14.4116 0 12.3332 0C10.2548 0 8.26146 0.674284 6.79179 1.87452C5.32212 3.07475 4.49646 4.70261 4.49646 6.4V9.2H2.04749V15.6C2.04749 20.2318 6.66161 24 12.3332 24C18.0048 24 22.6189 20.2318 22.6189 15.6V9.2H20.1699ZM6.45565 6.4C6.45565 5.12696 7.07489 3.90606 8.17714 3.00589C9.2794 2.10571 10.7744 1.6 12.3332 1.6C13.892 1.6 15.387 2.10571 16.4893 3.00589C17.5915 3.90606 18.2108 5.12696 18.2108 6.4V9.2H6.45565V6.4ZM20.6597 15.6C20.6597 19.3495 16.9244 22.4 12.3332 22.4C7.74198 22.4 4.00667 19.3495 4.00667 15.6V10.8H20.6597V15.6Z" fill="#DDDDDD"/>
<circle cx="12.5" cy="14.5" r="2.5" fill="#DDDDDD"/>
<rect x="11" y="14" width="3" height="5" rx="1.5" fill="#DDDDDD"/>
</svg>
