<svg width="25" height="24" viewBox="0 0 25 24" fill="none" xmlns="http://www.w3.org/2000/svg">
<path d="M1.0388 23.6233L1.04321 23.6278C1.1601 23.7455 1.29912 23.839 1.45227 23.9028C1.60541 23.9667 1.76967 23.9996 1.93559 23.9998C2.0752 23.9997 2.21385 23.9766 2.346 23.9316L9.54125 21.4908L23.3484 7.6836C24.1925 6.83946 24.6667 5.69458 24.6666 4.50084C24.6666 3.30709 24.1923 2.16225 23.3482 1.31818C22.504 0.474112 21.3591 -5.22578e-05 20.1654 4.31977e-09C18.9716 5.22665e-05 17.8268 0.474317 16.9827 1.31846L3.17555 15.1257L0.734943 22.3207C0.658064 22.5444 0.645793 22.7853 0.699536 23.0157C0.75328 23.2461 0.870863 23.4567 1.0388 23.6233ZM18.1293 2.46494C18.6701 1.92832 19.4014 1.62785 20.1632 1.62931C20.925 1.63077 21.6552 1.93406 22.1939 2.47275C22.7326 3.01144 23.0358 3.74163 23.0373 4.50345C23.0387 5.26526 22.7382 5.9966 22.2016 6.53733L20.386 8.35299L16.3136 4.2806L18.1293 2.46494ZM4.58971 16.0045L15.1671 5.42708L19.2395 9.49947L8.66205 20.0768L2.49902 22.1675L4.58971 16.0045Z" fill="#DDDDDD"/>
</svg>
