<svg width="24" height="24" viewBox="0 0 24 24" fill="none" xmlns="http://www.w3.org/2000/svg">
<path d="M7.2 3.99908V5.59794H22.4V8.76292L20.625 14.3916H6.6966L4.6966 0H0V1.59885H3.3034L5.3034 15.9905H21.7984L24 9.00884V3.99908H7.2Z" fill="#DDDDDD"/>
<path d="M8.04924 17.6047C7.20085 17.6057 6.38748 17.9429 5.78757 18.5424C5.18766 19.1419 4.85021 19.9547 4.84924 20.8024C4.84924 21.6505 5.18639 22.4639 5.7865 23.0636C6.38662 23.6633 7.20055 24.0002 8.04924 24.0002C8.89793 24.0002 9.71187 23.6633 10.312 23.0636C10.9121 22.4639 11.2492 21.6505 11.2492 20.8024C11.2483 19.9547 10.9108 19.1419 10.3109 18.5424C9.71102 17.9429 8.89764 17.6057 8.04924 17.6047ZM8.04924 22.4013C7.73279 22.4013 7.42345 22.3075 7.16033 22.1318C6.89721 21.9562 6.69214 21.7065 6.57104 21.4143C6.44994 21.1221 6.41825 20.8007 6.47999 20.4905C6.54172 20.1804 6.69411 19.8955 6.91787 19.6719C7.14164 19.4483 7.42673 19.296 7.7371 19.2343C8.04747 19.1726 8.36917 19.2043 8.66154 19.3253C8.9539 19.4463 9.20378 19.6512 9.37959 19.9142C9.5554 20.1771 9.64924 20.4862 9.64924 20.8024C9.64874 21.2263 9.48001 21.6327 9.18006 21.9324C8.88011 22.2322 8.47343 22.4008 8.04924 22.4013Z" fill="#DDDDDD"/>
<path d="M19.2492 17.6047C18.4008 17.6057 17.5874 17.9429 16.9875 18.5424C16.3876 19.1419 16.0502 19.9547 16.0492 20.8024C16.0492 21.6505 16.3863 22.4639 16.9865 23.0636C17.5866 23.6633 18.4005 24.0002 19.2492 24.0002C20.0979 24.0002 20.9118 23.6633 21.5119 23.0636C22.1121 22.4639 22.4492 21.6505 22.4492 20.8024C22.4482 19.9547 22.1108 19.1419 21.5109 18.5424C20.911 17.9429 20.0976 17.6057 19.2492 17.6047ZM19.2492 22.4013C18.9327 22.4013 18.6234 22.3075 18.3603 22.1318C18.0972 21.9562 17.8921 21.7065 17.771 21.4143C17.6499 21.1221 17.6182 20.8007 17.6799 20.4905C17.7417 20.1804 17.8941 19.8955 18.1178 19.6719C18.3416 19.4483 18.6267 19.296 18.937 19.2343C19.2474 19.1726 19.5691 19.2043 19.8615 19.3253C20.1538 19.4463 20.4037 19.6512 20.5795 19.9142C20.7554 20.1771 20.8492 20.4862 20.8492 20.8024C20.8487 21.2263 20.68 21.6327 20.38 21.9324C20.0801 22.2322 19.6734 22.4008 19.2492 22.4013Z" fill="#DDDDDD"/>
</svg>
