<svg width="25" height="24" viewBox="0 0 25 24" fill="none" xmlns="http://www.w3.org/2000/svg">
<path d="M23.4666 0H1.86663C1.54848 0.000411692 1.24347 0.14102 1.01851 0.390979C0.793544 0.640938 0.666996 0.979838 0.666626 1.33333V22.6667C0.666996 23.0202 0.793544 23.3591 1.01851 23.609C1.24347 23.859 1.54848 23.9996 1.86663 24H23.4666C23.7848 23.9996 24.0898 23.859 24.3147 23.609C24.5397 23.3591 24.6663 23.0202 24.6666 22.6667V1.33333C24.6663 0.979838 24.5397 0.640938 24.3147 0.390979C24.0898 0.14102 23.7848 0.000411692 23.4666 0V0ZM2.26663 1.77778H7.06663V5.77778H2.26663V1.77778ZM23.0666 22.2222H2.26663V7.55556H23.0666V22.2222ZM23.0666 5.77778H8.66663V1.77778H23.0666V5.77778Z" fill="#DDDDDD"/>
</svg>
