<svg width="24" height="24" viewBox="0 0 24 24" fill="none" xmlns="http://www.w3.org/2000/svg">
<path d="M19.2 6.17143V1.07143C19.1997 0.787368 19.0942 0.515035 18.9068 0.314174C18.7193 0.113313 18.4651 0.000326107 18.2 0H5.8C5.53488 0.000326107 5.2807 0.113313 5.09323 0.314174C4.90576 0.515035 4.8003 0.787368 4.8 1.07143V6.17143L0 9.84461V24H24V9.84461L19.2 6.17143ZM21.8839 10.3322L19.2 12.2121V8.27786L21.8839 10.3322ZM6.4 1.71429H17.6V13.333L14.7417 15.3354L12.4128 14.0416L9.8746 15.3544L6.4 13.0942V1.71429ZM12.3872 15.9584L22.4 21.5211V22.2857H1.6V21.538L12.3872 15.9584ZM1.6 11.9772L8.1572 16.2429L1.6 19.6344V11.9772ZM16.3723 16.2415L22.4 12.0186V19.5901L16.3723 16.2415ZM4.8 8.27786V12.0536L2.1333 10.3187L4.8 8.27786Z" fill="#DDDDDD"/>
</svg>
